# xmcd CD database file
#
# Track frame offsets:
#	150
#	20893
#	43545
#	63256
#	83426
#	104472
#	126102
#	145270
#	164829
#	186011
#
# Disc length: 2736 seconds
#
# Revision: 0
# Processed by: cddbd v1.5.1PL0 Copyright (c) Steve Scherf et al.
# Submitted via: CDex 1.51
#
DISCID=870aae0a
DTITLE=SMAP - Relaxing Orgel SMAP Collection
DYEAR=2003
DGENRE=Industrial
TTITLE0=世界に一つだけの花
TTITLE1=らいおんハート
TTITLE2=セロリ
TTITLE3=たいせつ
TTITLE4=どんないいこと
TTITLE5=SHAKE
TTITLE6=青いイナズマ
TTITLE7=freebird
TTITLE8=オリジナル　スマイル
TTITLE9=夜空ノムコウ
EXTD=YEAR: 2003
EXTT0=
EXTT1=
EXTT2=
EXTT3=
EXTT4=
EXTT5=
EXTT6=
EXTT7=
EXTT8=
EXTT9=
PLAYORDER=
